<?xml version="1.0" encoding="UTF-8" standalone="no"?>
<!DOCTYPE svg PUBLIC "-//W3C//DTD SVG 1.1//EN" "http://www.w3.org/Graphics/SVG/1.1/DTD/svg11.dtd">
<svg width="100%" height="100%" viewBox="0 0 1006 1150" version="1.1" xmlns="http://www.w3.org/2000/svg" xmlns:xlink="http://www.w3.org/1999/xlink" xml:space="preserve" xmlns:serif="http://www.serif.com/" style="fill-rule:evenodd;clip-rule:evenodd;stroke-linejoin:round;stroke-miterlimit:2;">
    <g transform="matrix(1,0,0,1,-6307.426771,-412.1825)">
        <g transform="matrix(4.166667,0,0,4.166667,4166.667187,0)">
            <g transform="matrix(1,0,0,1,754.9913,172.1248)">
                <path d="M0,129.508L0,0C0,-3.018 -1.609,-5.806 -4.224,-7.315L-116.381,-72.07C-118.994,-73.578 -122.214,-73.578 -124.827,-72.07L-236.985,-7.315C-239.599,-5.806 -241.209,-3.018 -241.209,0L-241.209,129.508C-241.209,132.527 -239.599,135.315 -236.985,136.823L-124.827,201.577C-122.214,203.086 -118.994,203.086 -116.381,201.577L-4.224,136.823C-1.609,135.315 0,132.527 0,129.508" style="fill:rgb(212,212,212);fill-rule:nonzero;"/>
            </g>
            <g transform="matrix(-0.864607,0.502449,0.502449,0.864607,620.520878,121.472867)">
                <path d="M-28.374,7.646L-10.832,7.646L-2.06,-7.646L-19.602,-7.646L-28.374,7.646Z" style="fill:rgb(59,129,134);fill-rule:nonzero;"/>
            </g>
            <g transform="matrix(-0.864607,0.502449,0.502449,0.864607,637.000727,130.987524)">
                <path d="M-28.376,7.649L-10.834,7.649L-2.061,-7.645L-19.602,-7.647L-28.376,7.649Z" style="fill:rgb(59,129,134);fill-rule:nonzero;"/>
            </g>
            <g transform="matrix(-0.864621,0.502424,0.502424,0.864621,604.172059,130.97349)">
                <path d="M-28.374,7.645L-10.831,7.645L-2.06,-7.645L-19.602,-7.646L-28.374,7.645Z" style="fill:rgb(59,129,134);fill-rule:nonzero;"/>
            </g>
            <g transform="matrix(-0.864607,0.502449,0.502449,0.864607,620.651446,140.489607)">
                <path d="M-28.377,7.649L-10.835,7.649L-2.061,-7.647L-19.603,-7.647L-28.377,7.649Z" style="fill:rgb(59,129,134);fill-rule:nonzero;"/>
            </g>
            <g transform="matrix(-0.864607,0.502449,0.502449,0.864607,587.77281,140.503916)">
                <path d="M-28.373,7.646L-10.831,7.646L-2.06,-7.646L-19.602,-7.646L-28.373,7.646Z" style="fill:rgb(59,129,134);fill-rule:nonzero;"/>
            </g>
            <g transform="matrix(-0.864621,0.502424,0.502424,0.864621,538.674959,169.03599)">
                <path d="M-28.374,7.645L-10.831,7.645L-2.06,-7.645L-19.602,-7.646L-28.374,7.645Z" style="fill:rgb(59,129,134);fill-rule:nonzero;"/>
            </g>
            <g transform="matrix(-0.864607,0.502449,0.502449,0.864607,555.023778,159.535367)">
                <path d="M-28.374,7.646L-10.832,7.646L-2.06,-7.646L-19.602,-7.646L-28.374,7.646Z" style="fill:rgb(59,129,134);fill-rule:nonzero;"/>
            </g>
            <g transform="matrix(-0.864607,0.502449,0.502449,0.864607,571.423178,150.005167)">
                <path d="M-28.374,7.646L-10.832,7.646L-2.06,-7.646L-19.602,-7.646L-28.374,7.646Z" style="fill:rgb(59,129,134);fill-rule:nonzero;"/>
            </g>
            <g transform="matrix(-0.864607,0.502449,0.502449,0.864607,686.577146,178.551607)">
                <path d="M-28.377,7.649L-10.835,7.649L-2.061,-7.647L-19.603,-7.647L-28.377,7.649Z" style="fill:rgb(59,129,134);fill-rule:nonzero;"/>
            </g>
            <g transform="matrix(-0.864607,0.502449,0.502449,0.864607,702.926779,169.050456)">
                <path d="M-28.376,7.648L-10.834,7.648L-2.061,-7.646L-19.602,-7.647L-28.376,7.648Z" style="fill:rgb(59,129,134);fill-rule:nonzero;"/>
            </g>
            <g transform="matrix(-0.864607,0.502449,0.502449,0.864607,719.409578,178.566167)">
                <path d="M-28.374,7.646L-10.832,7.646L-2.06,-7.646L-19.602,-7.646L-28.374,7.646Z" style="fill:rgb(59,129,134);fill-rule:nonzero;"/>
            </g>
            <g transform="matrix(-0.864607,0.502449,0.502449,0.864607,703.06091,188.066916)">
                <path d="M-28.373,7.646L-10.831,7.646L-2.06,-7.646L-19.602,-7.646L-28.373,7.646Z" style="fill:rgb(59,129,134);fill-rule:nonzero;"/>
            </g>
            <g transform="matrix(-0.864607,0.502449,0.502449,0.864607,522.325578,178.537367)">
                <path d="M-28.374,7.646L-10.832,7.646L-2.06,-7.646L-19.602,-7.646L-28.374,7.646Z" style="fill:rgb(59,129,134);fill-rule:nonzero;"/>
            </g>
            <g transform="matrix(-0.864607,0.502449,0.502449,0.864607,538.805427,188.052424)">
                <path d="M-28.376,7.649L-10.834,7.649L-2.061,-7.646L-19.602,-7.647L-28.376,7.649Z" style="fill:rgb(59,129,134);fill-rule:nonzero;"/>
            </g>
            <g transform="matrix(-0.864607,0.502449,0.502449,0.864607,555.288478,197.568667)">
                <path d="M-28.374,7.646L-10.832,7.646L-2.06,-7.646L-19.602,-7.646L-28.374,7.646Z" style="fill:rgb(59,129,134);fill-rule:nonzero;"/>
            </g>
            <g transform="matrix(-0.864607,0.502449,0.502449,0.864607,571.768579,207.084156)">
                <path d="M-28.376,7.648L-10.834,7.648L-2.061,-7.646L-19.602,-7.647L-28.376,7.648Z" style="fill:rgb(59,129,134);fill-rule:nonzero;"/>
            </g>
            <g transform="matrix(-0.864607,0.502449,0.502449,0.864607,604.466779,188.082156)">
                <path d="M-28.376,7.648L-10.834,7.648L-2.061,-7.646L-19.602,-7.647L-28.376,7.648Z" style="fill:rgb(59,129,134);fill-rule:nonzero;"/>
            </g>
            <g transform="matrix(-0.864607,0.502449,0.502449,0.864607,620.949578,197.597467)">
                <path d="M-28.374,7.646L-10.832,7.646L-2.06,-7.646L-19.602,-7.646L-28.374,7.646Z" style="fill:rgb(59,129,134);fill-rule:nonzero;"/>
            </g>
            <g transform="matrix(-0.864607,0.502449,0.502449,0.864607,604.731227,226.114424)">
                <path d="M-28.376,7.649L-10.834,7.649L-2.061,-7.645L-19.602,-7.647L-28.376,7.649Z" style="fill:rgb(59,129,134);fill-rule:nonzero;"/>
            </g>
            <g transform="matrix(-0.864607,0.502449,0.502449,0.864607,621.214278,235.630667)">
                <path d="M-28.374,7.646L-10.832,7.646L-2.06,-7.646L-19.602,-7.646L-28.374,7.646Z" style="fill:rgb(59,129,134);fill-rule:nonzero;"/>
            </g>
            <g transform="matrix(-0.864607,0.502449,0.502449,0.864607,637.562878,226.129667)">
                <path d="M-28.374,7.646L-10.832,7.646L-2.06,-7.646L-19.603,-7.645L-28.374,7.646Z" style="fill:rgb(59,129,134);fill-rule:nonzero;"/>
            </g>
            <g transform="matrix(-0.864607,0.502449,0.502449,0.864607,653.912478,216.628667)">
                <path d="M-28.374,7.646L-10.832,7.646L-2.06,-7.646L-19.602,-7.646L-28.374,7.646Z" style="fill:rgb(59,129,134);fill-rule:nonzero;"/>
            </g>
            <g transform="matrix(-0.864607,0.502449,0.502449,0.864607,670.311878,207.098367)">
                <path d="M-28.374,7.646L-10.832,7.646L-2.06,-7.646L-19.602,-7.646L-28.374,7.646Z" style="fill:rgb(59,129,134);fill-rule:nonzero;"/>
            </g>
            <g transform="matrix(-0.864607,0.502449,0.502449,0.864607,686.660478,197.597467)">
                <path d="M-28.374,7.646L-10.832,7.646L-2.06,-7.646L-19.602,-7.646L-28.374,7.646Z" style="fill:rgb(59,129,134);fill-rule:nonzero;"/>
            </g>
            <g transform="matrix(-0.864607,0.502449,0.502449,0.864607,637.348978,188.067167)">
                <path d="M-28.374,7.646L-10.832,7.646L-2.06,-7.646L-19.602,-7.646L-28.374,7.646Z" style="fill:rgb(59,129,134);fill-rule:nonzero;"/>
            </g>
            <g transform="matrix(-0.864607,0.502449,0.502449,0.864607,620.865927,178.550924)">
                <path d="M-28.376,7.649L-10.834,7.649L-2.061,-7.645L-19.602,-7.647L-28.376,7.649Z" style="fill:rgb(59,129,134);fill-rule:nonzero;"/>
            </g>
            <g transform="matrix(-0.864607,0.502449,0.502449,0.864607,587.986678,178.566667)">
                <path d="M-28.374,7.646L-10.832,7.646L-2.06,-7.646L-19.602,-7.646L-28.374,7.646Z" style="fill:rgb(59,129,134);fill-rule:nonzero;"/>
            </g>
            <g transform="matrix(-0.864607,0.502449,0.502449,0.864607,604.386078,169.036367)">
                <path d="M-28.374,7.646L-10.832,7.646L-2.06,-7.646L-19.602,-7.646L-28.374,7.646Z" style="fill:rgb(59,129,134);fill-rule:nonzero;"/>
            </g>
            <g transform="matrix(-0.864607,0.502449,0.502449,0.864607,620.73571,159.534716)">
                <path d="M-28.373,7.646L-10.831,7.646L-2.06,-7.646L-19.602,-7.646L-28.373,7.646Z" style="fill:rgb(59,129,134);fill-rule:nonzero;"/>
            </g>
            <g transform="matrix(-0.864607,0.502449,0.502449,0.864607,653.697678,178.566167)">
                <path d="M-28.374,7.646L-10.832,7.646L-2.06,-7.646L-19.603,-7.645L-28.374,7.646Z" style="fill:rgb(59,129,134);fill-rule:nonzero;"/>
            </g>
            <g transform="matrix(-0.864607,0.502449,0.502449,0.864607,653.483778,140.503667)">
                <path d="M-28.374,7.646L-10.832,7.646L-2.06,-7.646L-19.602,-7.646L-28.374,7.646Z" style="fill:rgb(59,129,134);fill-rule:nonzero;"/>
            </g>
            <g transform="matrix(-0.864607,0.502449,0.502449,0.864607,669.963627,150.018724)">
                <path d="M-28.376,7.649L-10.834,7.649L-2.061,-7.645L-19.602,-7.647L-28.376,7.649Z" style="fill:rgb(59,129,134);fill-rule:nonzero;"/>
            </g>
            <g transform="matrix(-0.864607,0.502449,0.502449,0.864607,637.214595,169.050275)">
                <path d="M-28.377,7.65L-10.835,7.65L-2.061,-7.646L-19.603,-7.647L-28.377,7.65Z" style="fill:rgb(59,129,134);fill-rule:nonzero;"/>
            </g>
            <g transform="matrix(-0.864607,0.502449,0.502449,0.864607,686.446678,159.534967)">
                <path d="M-28.374,7.646L-10.832,7.646L-2.06,-7.646L-19.602,-7.646L-28.374,7.646Z" style="fill:rgb(59,129,134);fill-rule:nonzero;"/>
            </g>
            <g transform="matrix(-0.864607,0.502449,0.502449,0.864607,588.251378,216.599367)">
                <path d="M-28.374,7.646L-10.832,7.646L-2.06,-7.646L-19.602,-7.646L-28.374,7.646Z" style="fill:rgb(59,129,134);fill-rule:nonzero;"/>
            </g>
            <g transform="matrix(-0.864607,0.502449,0.502449,0.864607,587.903279,159.520656)">
                <path d="M-28.376,7.648L-10.834,7.648L-2.061,-7.646L-19.602,-7.647L-28.376,7.648Z" style="fill:rgb(212,212,212);fill-rule:nonzero;"/>
            </g>
            <g transform="matrix(-0.864607,0.502449,0.502449,0.864607,604.251946,150.019907)">
                <path d="M-28.377,7.649L-10.835,7.649L-2.061,-7.647L-19.603,-7.647L-28.377,7.649Z" style="fill:rgb(212,212,212);fill-rule:nonzero;"/>
            </g>
            <g transform="matrix(-0.864607,0.502449,0.502449,0.864607,555.154095,178.551675)">
                <path d="M-28.377,7.65L-10.835,7.65L-2.061,-7.647L-19.603,-7.647L-28.377,7.65Z" style="fill:rgb(212,212,212);fill-rule:nonzero;"/>
            </g>
            <g transform="matrix(-0.864607,0.502449,0.502449,0.864607,571.63801,188.067416)">
                <path d="M-28.373,7.646L-10.831,7.646L-2.06,-7.646L-19.602,-7.646L-28.373,7.646Z" style="fill:rgb(212,212,212);fill-rule:nonzero;"/>
            </g>
            <g transform="matrix(-0.864607,0.502449,0.502449,0.864607,588.117246,197.583407)">
                <path d="M-28.377,7.649L-10.835,7.649L-2.061,-7.647L-19.603,-7.647L-28.377,7.649Z" style="fill:rgb(212,212,212);fill-rule:nonzero;"/>
            </g>
            <g transform="matrix(-0.864607,0.502449,0.502449,0.864607,621.079895,216.613675)">
                <path d="M-28.377,7.65L-10.835,7.65L-2.061,-7.646L-19.603,-7.647L-28.377,7.65Z" style="fill:rgb(212,212,212);fill-rule:nonzero;"/>
            </g>
            <g transform="matrix(-0.864607,0.502449,0.502449,0.864607,637.428495,207.112775)">
                <path d="M-28.377,7.65L-10.835,7.65L-2.061,-7.646L-19.603,-7.647L-28.377,7.65Z" style="fill:rgb(212,212,212);fill-rule:nonzero;"/>
            </g>
            <g transform="matrix(-0.864621,0.502424,0.502424,0.864621,670.177276,188.081098)">
                <path d="M-28.377,7.649L-10.834,7.649L-2.061,-7.646L-19.603,-7.647L-28.377,7.649Z" style="fill:rgb(212,212,212);fill-rule:nonzero;"/>
            </g>
            <g transform="matrix(-0.864607,0.502449,0.502449,0.864607,653.828827,197.582224)">
                <path d="M-28.376,7.649L-10.834,7.649L-2.061,-7.646L-19.602,-7.647L-28.376,7.649Z" style="fill:rgb(212,212,212);fill-rule:nonzero;"/>
            </g>
            <g transform="matrix(-0.864607,0.502449,0.502449,0.864607,571.503627,169.050424)">
                <path d="M-28.376,7.649L-10.834,7.649L-2.061,-7.646L-19.602,-7.647L-28.376,7.649Z" style="fill:rgb(212,212,212);fill-rule:nonzero;"/>
            </g>
            <g transform="matrix(-0.864607,0.502449,0.502449,0.864607,637.13511,150.004416)">
                <path d="M-28.373,7.646L-10.831,7.646L-2.06,-7.646L-19.602,-7.646L-28.373,7.646Z" style="fill:rgb(212,212,212);fill-rule:nonzero;"/>
            </g>
            <g transform="matrix(-0.864607,0.502449,0.502449,0.864607,653.613995,159.519975)">
                <path d="M-28.377,7.65L-10.835,7.65L-2.061,-7.646L-19.603,-7.647L-28.377,7.65Z" style="fill:rgb(212,212,212);fill-rule:nonzero;"/>
            </g>
            <g transform="matrix(-0.864607,0.502449,0.502449,0.864607,670.09801,169.035616)">
                <path d="M-28.373,7.646L-10.831,7.646L-2.06,-7.646L-19.602,-7.646L-28.373,7.646Z" style="fill:rgb(212,212,212);fill-rule:nonzero;"/>
            </g>
            <g transform="matrix(-0.864607,0.502449,0.502449,0.864607,604.60091,207.098116)">
                <path d="M-28.373,7.646L-10.831,7.646L-2.06,-7.646L-19.602,-7.646L-28.373,7.646Z" style="fill:rgb(212,212,212);fill-rule:nonzero;"/>
            </g>
            <g transform="matrix(-0.00285,0.999996,0.999996,0.00285,548.287648,202.084703)">
                <path d="M-12.045,3.286L5.497,3.286L-3.276,-12.011L-20.818,-12.011L-12.045,3.286Z" style="fill:rgb(15,39,70);fill-rule:nonzero;"/>
            </g>
            <g transform="matrix(-0.00285,0.999996,0.999996,0.00285,564.770155,211.597908)">
                <path d="M-12.044,3.282L5.498,3.282L-3.272,-12.01L-20.814,-12.011L-12.044,3.282Z" style="fill:rgb(15,39,70);fill-rule:nonzero;"/>
            </g>
            <g transform="matrix(-0.002849,0.999996,0.999996,0.002849,581.199854,240.027708)">
                <path d="M-12.048,3.283L5.499,3.283L-3.273,-12.014L-20.82,-12.014L-12.048,3.283Z" style="fill:rgb(212,212,212);fill-rule:nonzero;"/>
            </g>
            <g transform="matrix(-0.00285,0.999996,0.999996,0.00285,581.250549,221.115505)">
                <path d="M-12.045,3.285L5.497,3.285L-3.275,-12.011L-20.817,-12.012L-12.045,3.285Z" style="fill:rgb(15,39,70);fill-rule:nonzero;"/>
            </g>
            <g transform="matrix(-0.00285,0.999996,0.999996,0.00285,597.733055,230.629108)">
                <path d="M-12.044,3.282L5.498,3.282L-3.272,-12.01L-20.814,-12.011L-12.044,3.282Z" style="fill:rgb(15,39,70);fill-rule:nonzero;"/>
            </g>
            <g transform="matrix(-0.00285,0.999996,0.999996,0.00285,614.213449,240.146705)">
                <path d="M-12.045,3.285L5.497,3.285L-3.275,-12.011L-20.817,-12.012L-12.045,3.285Z" style="fill:rgb(15,39,70);fill-rule:nonzero;"/>
            </g>
            <g transform="matrix(-0.00285,0.999996,0.999996,0.00285,630.695955,249.659908)">
                <path d="M-12.044,3.282L5.498,3.282L-3.272,-12.01L-20.814,-12.011L-12.044,3.282Z" style="fill:rgb(15,39,70);fill-rule:nonzero;"/>
            </g>
            <g transform="matrix(-0.00285,0.999996,0.999996,0.00285,531.807756,192.566108)">
                <path d="M-12.043,3.281L5.499,3.281L-3.272,-12.009L-20.814,-12.01L-12.043,3.281Z" style="fill:rgb(15,39,70);fill-rule:nonzero;"/>
            </g>
            <g transform="matrix(-0.002849,0.999996,0.999996,0.002849,564.612062,268.386011)">
                <path d="M-12.046,3.279L5.501,3.279L-3.269,-12.012L-20.816,-12.013L-12.046,3.279Z" style="fill:rgb(15,39,70);fill-rule:nonzero;"/>
            </g>
            <g transform="matrix(-0.00285,0.999996,0.999996,0.00285,564.663256,249.474308)">
                <path d="M-12.043,3.281L5.499,3.281L-3.272,-12.009L-20.814,-12.011L-12.043,3.281Z" style="fill:rgb(15,39,70);fill-rule:nonzero;"/>
            </g>
            <g transform="matrix(-0.002849,0.999996,0.999996,0.002849,597.574962,287.417311)">
                <path d="M-12.046,3.279L5.501,3.279L-3.269,-12.012L-20.816,-12.014L-12.046,3.279Z" style="fill:rgb(15,39,70);fill-rule:nonzero;"/>
            </g>
            <g transform="matrix(-0.00285,0.999996,0.999996,0.00285,597.625655,268.506108)">
                <path d="M-12.044,3.282L5.498,3.282L-3.272,-12.01L-20.814,-12.011L-12.044,3.282Z" style="fill:rgb(15,39,70);fill-rule:nonzero;"/>
            </g>
            <g transform="matrix(-0.002849,0.999996,0.999996,0.002849,630.538262,306.449013)">
                <path d="M-12.047,3.278L5.501,3.278L-3.271,-12.013L-20.817,-12.014L-12.047,3.278Z" style="fill:rgb(15,39,70);fill-rule:nonzero;"/>
            </g>
            <g transform="matrix(-0.00285,0.999996,0.999996,0.00285,630.589556,287.53741)">
                <path d="M-12.045,3.281L5.498,3.281L-3.272,-12.011L-20.814,-12.012L-12.045,3.281Z" style="fill:rgb(15,39,70);fill-rule:nonzero;"/>
            </g>
            <g transform="matrix(-0.002849,0.999996,0.999996,0.002849,630.644761,268.572111)">
                <path d="M-12.046,3.279L5.501,3.279L-3.27,-12.012L-20.817,-12.013L-12.046,3.279Z" style="fill:rgb(15,39,70);fill-rule:nonzero;"/>
            </g>
            <g transform="matrix(-0.00285,0.999996,0.999996,0.00285,531.700356,230.443108)">
                <path d="M-12.043,3.281L5.499,3.281L-3.272,-12.009L-20.814,-12.01L-12.043,3.281Z" style="fill:rgb(15,39,70);fill-rule:nonzero;"/>
            </g>
            <g transform="matrix(-0.002849,0.999996,0.999996,0.002849,531.756562,211.477811)">
                <path d="M-12.046,3.279L5.501,3.279L-3.269,-12.012L-20.816,-12.013L-12.046,3.279Z" style="fill:rgb(15,39,70);fill-rule:nonzero;"/>
            </g>
            <g transform="matrix(-0.002849,0.999996,0.999996,0.002849,580.984954,315.781608)">
                <path d="M-12.048,3.283L5.499,3.283L-3.274,-12.014L-20.82,-12.014L-12.048,3.283Z" style="fill:rgb(15,39,70);fill-rule:nonzero;"/>
            </g>
            <g transform="matrix(-0.00285,0.999996,0.999996,0.00285,581.036148,296.869905)">
                <path d="M-12.045,3.285L5.497,3.285L-3.276,-12.011L-20.818,-12.011L-12.045,3.285Z" style="fill:rgb(212,212,212);fill-rule:nonzero;"/>
            </g>
            <g transform="matrix(-0.002849,0.999996,0.999996,0.002849,531.649162,249.354811)">
                <path d="M-12.046,3.279L5.501,3.279L-3.269,-12.012L-20.816,-12.013L-12.046,3.279Z" style="fill:rgb(15,39,70);fill-rule:nonzero;"/>
            </g>
            <g transform="matrix(-0.00285,0.999996,0.999996,0.00285,547.966349,315.662405)">
                <path d="M-12.046,3.285L5.497,3.285L-3.276,-12.012L-20.818,-12.012L-12.046,3.285Z" style="fill:rgb(15,39,70);fill-rule:nonzero;"/>
            </g>
            <g transform="matrix(-0.00285,0.999996,0.999996,0.00285,564.448356,325.174508)">
                <path d="M-12.043,3.281L5.499,3.281L-3.271,-12.009L-20.814,-12.01L-12.043,3.281Z" style="fill:rgb(15,39,70);fill-rule:nonzero;"/>
            </g>
            <g transform="matrix(-0.002849,0.999996,0.999996,0.002849,564.504562,306.263011)">
                <path d="M-12.046,3.279L5.501,3.279L-3.269,-12.012L-20.816,-12.013L-12.046,3.279Z" style="fill:rgb(15,39,70);fill-rule:nonzero;"/>
            </g>
            <g transform="matrix(-0.00285,0.999996,0.999996,0.00285,564.555856,287.351308)">
                <path d="M-12.043,3.281L5.499,3.281L-3.272,-12.009L-20.814,-12.01L-12.043,3.281Z" style="fill:rgb(15,39,70);fill-rule:nonzero;"/>
            </g>
            <g transform="matrix(-0.002849,0.999996,0.999996,0.002849,597.468464,325.294213)">
                <path d="M-12.047,3.278L5.501,3.278L-3.27,-12.013L-20.816,-12.014L-12.047,3.278Z" style="fill:rgb(15,39,70);fill-rule:nonzero;"/>
            </g>
            <g transform="matrix(-0.00285,0.999996,0.999996,0.00285,597.519156,306.38311)">
                <path d="M-12.045,3.281L5.498,3.281L-3.272,-12.011L-20.814,-12.012L-12.045,3.281Z" style="fill:rgb(15,39,70);fill-rule:nonzero;"/>
            </g>
            <g transform="matrix(-0.00285,0.999996,0.999996,0.00285,630.374156,363.237008)">
                <path d="M-12.043,3.281L5.499,3.281L-3.272,-12.009L-20.814,-12.01L-12.043,3.281Z" style="fill:rgb(15,39,70);fill-rule:nonzero;"/>
            </g>
            <g transform="matrix(-0.002849,0.999996,0.999996,0.002849,630.430862,344.326013)">
                <path d="M-12.047,3.278L5.501,3.278L-3.271,-12.013L-20.817,-12.014L-12.047,3.278Z" style="fill:rgb(15,39,70);fill-rule:nonzero;"/>
            </g>
            <g transform="matrix(-0.00285,0.999996,0.999996,0.00285,630.481555,325.413809)">
                <path d="M-12.044,3.281L5.498,3.281L-3.272,-12.01L-20.814,-12.011L-12.044,3.281Z" style="fill:rgb(15,39,70);fill-rule:nonzero;"/>
            </g>
            <g transform="matrix(-0.002793,0.999996,0.999996,0.002793,531.486393,306.143561)">
                <path d="M-12.043,3.281L5.499,3.281L-3.272,-12.01L-20.814,-12.01L-12.043,3.281Z" style="fill:rgb(15,39,70);fill-rule:nonzero;"/>
            </g>
            <g transform="matrix(-0.00285,0.999996,0.999996,0.00285,531.592956,268.320008)">
                <path d="M-12.043,3.281L5.499,3.281L-3.272,-12.009L-20.814,-12.01L-12.043,3.281Z" style="fill:rgb(15,39,70);fill-rule:nonzero;"/>
            </g>
            <g transform="matrix(-0.00285,0.999996,0.999996,0.00285,613.891648,353.724405)">
                <path d="M-12.045,3.285L5.497,3.285L-3.276,-12.011L-20.818,-12.011L-12.045,3.285Z" style="fill:rgb(15,39,70);fill-rule:nonzero;"/>
            </g>
            <g transform="matrix(-0.002849,0.999996,0.999996,0.002849,531.541762,287.231711)">
                <path d="M-12.046,3.279L5.501,3.279L-3.269,-12.012L-20.816,-12.013L-12.046,3.279Z" style="fill:rgb(15,39,70);fill-rule:nonzero;"/>
            </g>
            <g transform="matrix(-0.00285,0.999996,0.999996,0.00285,580.928748,334.693105)">
                <path d="M-12.045,3.285L5.497,3.285L-3.276,-12.011L-20.818,-12.011L-12.045,3.285Z" style="fill:rgb(15,39,70);fill-rule:nonzero;"/>
            </g>
            <g transform="matrix(-0.00285,0.999996,0.999996,0.00285,597.411256,344.205808)">
                <path d="M-12.043,3.281L5.499,3.281L-3.272,-12.009L-20.814,-12.01L-12.043,3.281Z" style="fill:rgb(15,39,70);fill-rule:nonzero;"/>
            </g>
            <g transform="matrix(-0.002849,0.999996,0.999996,0.002849,548.236454,220.996407)">
                <path d="M-12.047,3.283L5.5,3.283L-3.274,-12.013L-20.821,-12.013L-12.047,3.283Z" style="fill:rgb(212,212,212);fill-rule:nonzero;"/>
            </g>
            <g transform="matrix(-0.00285,0.999996,0.999996,0.00285,548.180748,239.961705)">
                <path d="M-12.045,3.285L5.497,3.285L-3.276,-12.011L-20.818,-12.011L-12.045,3.285Z" style="fill:rgb(212,212,212);fill-rule:nonzero;"/>
            </g>
            <g transform="matrix(-0.002849,0.999996,0.999996,0.002849,564.719462,230.509111)">
                <path d="M-12.046,3.279L5.501,3.279L-3.269,-12.012L-20.816,-12.013L-12.046,3.279Z" style="fill:rgb(212,212,212);fill-rule:nonzero;"/>
            </g>
            <g transform="matrix(-0.002849,0.999996,0.999996,0.002849,597.681861,249.540311)">
                <path d="M-12.046,3.279L5.501,3.279L-3.269,-12.012L-20.817,-12.013L-12.046,3.279Z" style="fill:rgb(212,212,212);fill-rule:nonzero;"/>
            </g>
            <g transform="matrix(-0.002849,0.999996,0.999996,0.002849,614.162257,259.058408)">
                <path d="M-12.047,3.282L5.501,3.282L-3.274,-12.013L-20.821,-12.014L-12.047,3.282Z" style="fill:rgb(212,212,212);fill-rule:nonzero;"/>
            </g>
            <g transform="matrix(-0.002849,0.999996,0.999996,0.002849,581.092855,277.905109)">
                <path d="M-12.048,3.282L5.5,3.282L-3.275,-12.014L-20.821,-12.014L-12.048,3.282Z" style="fill:rgb(212,212,212);fill-rule:nonzero;"/>
            </g>
            <g transform="matrix(-0.002792,0.999996,0.999996,0.002792,614.055293,296.935161)">
                <path d="M-12.047,3.282L5.5,3.282L-3.274,-12.013L-20.82,-12.013L-12.047,3.282Z" style="fill:rgb(212,212,212);fill-rule:nonzero;"/>
            </g>
            <g transform="matrix(-0.00285,0.999996,0.999996,0.00285,614.106049,278.023705)">
                <path d="M-12.045,3.285L5.497,3.285L-3.275,-12.011L-20.817,-12.012L-12.045,3.285Z" style="fill:rgb(212,212,212);fill-rule:nonzero;"/>
            </g>
            <g transform="matrix(-0.002849,0.999996,0.999996,0.002849,548.130055,258.873909)">
                <path d="M-12.048,3.282L5.5,3.282L-3.275,-12.014L-20.821,-12.014L-12.048,3.282Z" style="fill:rgb(212,212,212);fill-rule:nonzero;"/>
            </g>
            <g transform="matrix(-0.002849,0.999996,0.999996,0.002849,613.947354,334.812307)">
                <path d="M-12.047,3.283L5.5,3.283L-3.274,-12.013L-20.821,-12.013L-12.047,3.283Z" style="fill:rgb(212,212,212);fill-rule:nonzero;"/>
            </g>
            <g transform="matrix(-0.00285,0.999996,0.999996,0.00285,613.998049,315.900103)">
                <path d="M-12.044,3.285L5.498,3.285L-3.275,-12.01L-20.818,-12.011L-12.044,3.285Z" style="fill:rgb(212,212,212);fill-rule:nonzero;"/>
            </g>
            <g transform="matrix(-0.00285,0.999996,0.999996,0.00285,548.073248,277.838605)">
                <path d="M-12.045,3.285L5.497,3.285L-3.276,-12.011L-20.818,-12.011L-12.045,3.285Z" style="fill:rgb(212,212,212);fill-rule:nonzero;"/>
            </g>
            <g transform="matrix(-0.002849,0.999996,0.999996,0.002849,548.022555,296.750809)">
                <path d="M-12.048,3.282L5.5,3.282L-3.275,-12.014L-20.821,-12.014L-12.048,3.282Z" style="fill:rgb(212,212,212);fill-rule:nonzero;"/>
            </g>
            <g transform="matrix(-0.002793,0.999996,0.999996,0.002793,581.143586,258.992157)">
                <path d="M-12.044,3.285L5.498,3.285L-3.276,-12.011L-20.818,-12.011L-12.044,3.285Z" style="fill:rgb(212,212,212);fill-rule:nonzero;"/>
            </g>
            <g transform="matrix(0.002793,0.999996,0.999996,-0.002793,672.102008,240.048058)">
                <path d="M-20.769,-5.531L-3.227,-5.531L5.547,-20.827L-11.995,-20.827L-20.769,-5.531Z" style="fill:rgb(231,149,128);fill-rule:nonzero;"/>
            </g>
            <g transform="matrix(0.00285,0.999996,0.999996,-0.00285,688.582433,230.529708)">
                <path d="M-20.765,-5.532L-3.223,-5.532L5.548,-20.824L-11.994,-20.824L-20.765,-5.532Z" style="fill:rgb(231,149,128);fill-rule:nonzero;"/>
            </g>
            <g transform="matrix(0.002849,0.999996,0.999996,-0.002849,705.121532,239.927807)">
                <path d="M-20.771,-5.534L-3.224,-5.534L5.55,-20.83L-11.998,-20.83L-20.771,-5.534Z" style="fill:rgb(212,212,212);fill-rule:nonzero;"/>
            </g>
            <g transform="matrix(0.00285,0.999996,0.999996,-0.00285,705.065339,221.016104)">
                <path d="M-20.768,-5.531L-3.226,-5.531L5.547,-20.828L-11.995,-20.828L-20.768,-5.531Z" style="fill:rgb(231,149,128);fill-rule:nonzero;"/>
            </g>
            <g transform="matrix(0.00285,0.999996,0.999996,-0.00285,721.545333,211.498408)">
                <path d="M-20.765,-5.532L-3.223,-5.532L5.548,-20.824L-11.994,-20.824L-20.765,-5.532Z" style="fill:rgb(231,149,128);fill-rule:nonzero;"/>
            </g>
            <g transform="matrix(0.00285,0.999996,0.999996,-0.00285,738.028239,201.984804)">
                <path d="M-20.768,-5.531L-3.226,-5.531L5.547,-20.828L-11.995,-20.828L-20.768,-5.531Z" style="fill:rgb(231,149,128);fill-rule:nonzero;"/>
            </g>
            <g transform="matrix(0.00285,0.999996,0.999996,-0.00285,754.508233,192.467208)">
                <path d="M-20.765,-5.532L-3.223,-5.532L5.548,-20.824L-11.994,-20.824L-20.765,-5.532Z" style="fill:rgb(231,149,128);fill-rule:nonzero;"/>
            </g>
            <g transform="matrix(0.002849,0.999996,0.999996,-0.002849,655.783127,306.349112)">
                <path d="M-20.767,-5.534L-3.22,-5.534L5.55,-20.827L-11.998,-20.827L-20.767,-5.534Z" style="fill:rgb(231,149,128);fill-rule:nonzero;"/>
            </g>
            <g transform="matrix(0.00285,0.999996,0.999996,-0.00285,655.726933,287.437408)">
                <path d="M-20.765,-5.532L-3.223,-5.532L5.548,-20.824L-11.995,-20.824L-20.765,-5.532Z" style="fill:rgb(231,149,128);fill-rule:nonzero;"/>
            </g>
            <g transform="matrix(0.002849,0.999996,0.999996,-0.002849,655.675726,268.472114)">
                <path d="M-20.767,-5.534L-3.219,-5.534L5.55,-20.827L-11.997,-20.827L-20.767,-5.534Z" style="fill:rgb(231,149,128);fill-rule:nonzero;"/>
            </g>
            <g transform="matrix(0.00285,0.999996,0.999996,-0.00285,655.620031,249.559908)">
                <path d="M-20.764,-5.532L-3.222,-5.532L5.548,-20.825L-11.994,-20.824L-20.764,-5.532Z" style="fill:rgb(231,149,128);fill-rule:nonzero;"/>
            </g>
            <g transform="matrix(0.00285,0.999996,0.999996,-0.00285,672.424139,353.624005)">
                <path d="M-20.768,-5.531L-3.226,-5.531L5.547,-20.827L-11.995,-20.827L-20.768,-5.531Z" style="fill:rgb(231,149,128);fill-rule:nonzero;"/>
            </g>
            <g transform="matrix(0.00285,0.999996,0.999996,-0.00285,688.689833,268.406108)">
                <path d="M-20.765,-5.532L-3.223,-5.532L5.548,-20.824L-11.994,-20.824L-20.765,-5.532Z" style="fill:rgb(231,149,128);fill-rule:nonzero;"/>
            </g>
            <g transform="matrix(0.00285,0.999996,0.999996,-0.00285,721.652733,249.374908)">
                <path d="M-20.765,-5.532L-3.223,-5.532L5.548,-20.824L-11.994,-20.824L-20.765,-5.532Z" style="fill:rgb(231,149,128);fill-rule:nonzero;"/>
            </g>
            <g transform="matrix(0.00285,0.999996,0.999996,-0.00285,754.615633,230.344108)">
                <path d="M-20.765,-5.532L-3.223,-5.532L5.548,-20.824L-11.994,-20.824L-20.765,-5.532Z" style="fill:rgb(231,149,128);fill-rule:nonzero;"/>
            </g>
            <g transform="matrix(0.002849,0.999996,0.999996,-0.002849,754.564427,211.378812)">
                <path d="M-20.767,-5.534L-3.22,-5.534L5.55,-20.827L-11.997,-20.827L-20.767,-5.534Z" style="fill:rgb(231,149,128);fill-rule:nonzero;"/>
            </g>
            <g transform="matrix(0.002849,0.999996,0.999996,-0.002849,688.746026,287.317814)">
                <path d="M-20.767,-5.534L-3.219,-5.534L5.55,-20.827L-11.997,-20.827L-20.767,-5.534Z" style="fill:rgb(231,149,128);fill-rule:nonzero;"/>
            </g>
            <g transform="matrix(0.00285,0.999996,0.999996,-0.00285,705.279639,296.769505)">
                <path d="M-20.768,-5.531L-3.226,-5.531L5.547,-20.827L-11.995,-20.827L-20.768,-5.531Z" style="fill:rgb(212,212,212);fill-rule:nonzero;"/>
            </g>
            <g transform="matrix(0.002849,0.999996,0.999996,-0.002849,721.708926,268.286614)">
                <path d="M-20.767,-5.534L-3.219,-5.534L5.55,-20.827L-11.997,-20.827L-20.767,-5.534Z" style="fill:rgb(231,149,128);fill-rule:nonzero;"/>
            </g>
            <g transform="matrix(0.002849,0.999996,0.999996,-0.002849,754.671827,249.255812)">
                <path d="M-20.767,-5.534L-3.22,-5.534L5.55,-20.827L-11.997,-20.827L-20.767,-5.534Z" style="fill:rgb(231,149,128);fill-rule:nonzero;"/>
            </g>
            <g transform="matrix(0.002849,0.999996,0.999996,-0.002849,688.853427,325.194812)">
                <path d="M-20.767,-5.534L-3.22,-5.534L5.55,-20.827L-11.998,-20.827L-20.767,-5.534Z" style="fill:rgb(231,149,128);fill-rule:nonzero;"/>
            </g>
            <g transform="matrix(0.00285,0.999996,0.999996,-0.00285,688.797233,306.283108)">
                <path d="M-20.765,-5.532L-3.223,-5.532L5.548,-20.824L-11.995,-20.824L-20.765,-5.532Z" style="fill:rgb(231,149,128);fill-rule:nonzero;"/>
            </g>
            <g transform="matrix(0.00285,0.999996,0.999996,-0.00285,721.867532,325.07511)">
                <path d="M-20.765,-5.532L-3.222,-5.532L5.548,-20.824L-11.994,-20.824L-20.765,-5.532Z" style="fill:rgb(231,149,128);fill-rule:nonzero;"/>
            </g>
            <g transform="matrix(0.002849,0.999996,0.999996,-0.002849,721.816326,306.163514)">
                <path d="M-20.767,-5.534L-3.219,-5.534L5.55,-20.827L-11.997,-20.827L-20.767,-5.534Z" style="fill:rgb(231,149,128);fill-rule:nonzero;"/>
            </g>
            <g transform="matrix(0.00285,0.999996,0.999996,-0.00285,721.760133,287.251808)">
                <path d="M-20.765,-5.532L-3.223,-5.532L5.548,-20.824L-11.994,-20.824L-20.765,-5.532Z" style="fill:rgb(231,149,128);fill-rule:nonzero;"/>
            </g>
            <g transform="matrix(0.00285,0.999996,0.999996,-0.00285,754.829933,306.044309)">
                <path d="M-20.764,-5.531L-3.222,-5.531L5.547,-20.824L-11.995,-20.824L-20.764,-5.531Z" style="fill:rgb(231,149,128);fill-rule:nonzero;"/>
            </g>
            <g transform="matrix(0.002849,0.999996,0.999996,-0.002849,754.779226,287.132314)">
                <path d="M-20.767,-5.534L-3.219,-5.534L5.55,-20.827L-11.997,-20.827L-20.767,-5.534Z" style="fill:rgb(231,149,128);fill-rule:nonzero;"/>
            </g>
            <g transform="matrix(0.00285,0.999996,0.999996,-0.00285,754.723033,268.220608)">
                <path d="M-20.765,-5.532L-3.223,-5.532L5.548,-20.824L-11.994,-20.824L-20.765,-5.532Z" style="fill:rgb(231,149,128);fill-rule:nonzero;"/>
            </g>
            <g transform="matrix(0.00285,0.999996,0.999996,-0.00285,655.941733,363.137608)">
                <path d="M-20.765,-5.532L-3.223,-5.532L5.548,-20.824L-11.994,-20.824L-20.765,-5.532Z" style="fill:rgb(231,149,128);fill-rule:nonzero;"/>
            </g>
            <g transform="matrix(0.002849,0.999996,0.999996,-0.002849,655.890527,344.226012)">
                <path d="M-20.767,-5.534L-3.22,-5.534L5.55,-20.827L-11.998,-20.827L-20.767,-5.534Z" style="fill:rgb(231,149,128);fill-rule:nonzero;"/>
            </g>
            <g transform="matrix(0.00285,0.999996,0.999996,-0.00285,655.833833,325.313809)">
                <path d="M-20.764,-5.531L-3.222,-5.531L5.547,-20.824L-11.995,-20.824L-20.764,-5.531Z" style="fill:rgb(231,149,128);fill-rule:nonzero;"/>
            </g>
            <g transform="matrix(0.00285,0.999996,0.999996,-0.00285,705.387039,334.592705)">
                <path d="M-20.768,-5.531L-3.226,-5.531L5.547,-20.827L-11.995,-20.827L-20.768,-5.531Z" style="fill:rgb(231,149,128);fill-rule:nonzero;"/>
            </g>
            <g transform="matrix(0.002849,0.999996,0.999996,-0.002849,705.335832,315.681209)">
                <path d="M-20.77,-5.533L-3.223,-5.533L5.549,-20.83L-11.998,-20.83L-20.77,-5.533Z" style="fill:rgb(231,149,128);fill-rule:nonzero;"/>
            </g>
            <g transform="matrix(0.00285,0.999996,0.999996,-0.00285,738.350439,315.562004)">
                <path d="M-20.768,-5.531L-3.226,-5.531L5.547,-20.828L-11.996,-20.828L-20.768,-5.531Z" style="fill:rgb(231,149,128);fill-rule:nonzero;"/>
            </g>
            <g transform="matrix(0.00285,0.999996,0.999996,-0.00285,688.904633,344.106308)">
                <path d="M-20.765,-5.532L-3.223,-5.532L5.548,-20.824L-11.994,-20.824L-20.765,-5.532Z" style="fill:rgb(231,149,128);fill-rule:nonzero;"/>
            </g>
            <g transform="matrix(0.002849,0.999996,0.999996,-0.002849,738.084432,220.896507)">
                <path d="M-20.771,-5.534L-3.224,-5.534L5.55,-20.83L-11.997,-20.83L-20.771,-5.534Z" style="fill:rgb(212,212,212);fill-rule:nonzero;"/>
            </g>
            <g transform="matrix(0.002849,0.999996,0.999996,-0.002849,672.373431,334.711909)">
                <path d="M-20.771,-5.534L-3.223,-5.534L5.55,-20.83L-11.997,-20.83L-20.771,-5.534Z" style="fill:rgb(212,212,212);fill-rule:nonzero;"/>
            </g>
            <g transform="matrix(0.00285,0.999996,0.999996,-0.00285,672.317237,315.800306)">
                <path d="M-20.768,-5.531L-3.225,-5.531L5.547,-20.828L-11.995,-20.828L-20.768,-5.531Z" style="fill:rgb(212,212,212);fill-rule:nonzero;"/>
            </g>
            <g transform="matrix(0.002849,0.999996,0.999996,-0.002849,672.265532,296.835509)">
                <path d="M-20.77,-5.533L-3.223,-5.533L5.549,-20.83L-11.998,-20.83L-20.77,-5.533Z" style="fill:rgb(212,212,212);fill-rule:nonzero;"/>
            </g>
            <g transform="matrix(0.00285,0.999996,0.999996,-0.00285,672.209339,277.923805)">
                <path d="M-20.768,-5.531L-3.226,-5.531L5.547,-20.827L-11.995,-20.827L-20.768,-5.531Z" style="fill:rgb(212,212,212);fill-rule:nonzero;"/>
            </g>
            <g transform="matrix(0.002849,0.999996,0.999996,-0.002849,672.158632,258.959007)">
                <path d="M-20.771,-5.534L-3.224,-5.534L5.55,-20.83L-11.998,-20.83L-20.771,-5.534Z" style="fill:rgb(212,212,212);fill-rule:nonzero;"/>
            </g>
            <g transform="matrix(0.002849,0.999996,0.999996,-0.002849,688.638626,249.440914)">
                <path d="M-20.767,-5.534L-3.219,-5.534L5.55,-20.827L-11.997,-20.827L-20.767,-5.534Z" style="fill:rgb(212,212,212);fill-rule:nonzero;"/>
            </g>
            <g transform="matrix(0.002849,0.999996,0.999996,-0.002849,721.601527,230.410112)">
                <path d="M-20.767,-5.534L-3.22,-5.534L5.55,-20.827L-11.997,-20.827L-20.767,-5.534Z" style="fill:rgb(212,212,212);fill-rule:nonzero;"/>
            </g>
            <g transform="matrix(0.00285,0.999996,0.999996,-0.00285,705.172239,258.892505)">
                <path d="M-20.768,-5.531L-3.226,-5.531L5.547,-20.827L-11.995,-20.827L-20.768,-5.531Z" style="fill:rgb(212,212,212);fill-rule:nonzero;"/>
            </g>
            <g transform="matrix(0.002849,0.999996,0.999996,-0.002849,738.299232,296.650407)">
                <path d="M-20.771,-5.534L-3.224,-5.534L5.55,-20.83L-11.998,-20.83L-20.771,-5.534Z" style="fill:rgb(212,212,212);fill-rule:nonzero;"/>
            </g>
            <g transform="matrix(0.002849,0.999996,0.999996,-0.002849,738.191832,258.773507)">
                <path d="M-20.771,-5.534L-3.224,-5.534L5.55,-20.83L-11.998,-20.83L-20.771,-5.534Z" style="fill:rgb(212,212,212);fill-rule:nonzero;"/>
            </g>
            <g transform="matrix(0.00285,0.999996,0.999996,-0.00285,738.135639,239.861804)">
                <path d="M-20.768,-5.531L-3.226,-5.531L5.547,-20.828L-11.995,-20.828L-20.768,-5.531Z" style="fill:rgb(212,212,212);fill-rule:nonzero;"/>
            </g>
            <g transform="matrix(0.002849,0.999996,0.999996,-0.002849,705.228932,277.804707)">
                <path d="M-20.771,-5.534L-3.224,-5.534L5.55,-20.83L-11.998,-20.83L-20.771,-5.534Z" style="fill:rgb(212,212,212);fill-rule:nonzero;"/>
            </g>
            <g transform="matrix(0.00285,0.999996,0.999996,-0.00285,738.242539,277.738205)">
                <path d="M-20.768,-5.531L-3.226,-5.531L5.547,-20.827L-11.995,-20.827L-20.768,-5.531Z" style="fill:rgb(212,212,212);fill-rule:nonzero;"/>
            </g>
        </g>
    </g>
</svg>
